<svg id="SvgjsSvg1006" width="970" height="595.140625" xmlns="http://www.w3.org/2000/svg" version="1.1" xmlns:xlink="http://www.w3.org/1999/xlink" xmlns:svgjs="http://svgjs.com/svgjs"><defs id="SvgjsDefs1007"></defs><g id="SvgjsG1008" transform="translate(89.42017431972809,25.011054421768677)"><path id="SvgjsPath1009" d="M 0 76.5C 0 -25.5 164 -25.5 164 76.5C 164 178.5 0 178.5 0 76.5Z" stroke="rgba(50,50,50,1)" stroke-width="2" fill-opacity="1" fill="#99ccff"></path><g id="SvgjsG1010"><text id="SvgjsText1011" font-family="微软雅黑" text-anchor="middle" font-size="13px" width="144px" fill="#323232" font-weight="400" align="middle" anchor="middle" family="微软雅黑" size="13px" weight="400" font-style="" opacity="1" y="66.55" transform="rotate(0)"></text></g></g><g id="SvgjsG1012" transform="translate(75.671875,205.875)"><path id="SvgjsPath1013" d="M 0 0L 190 0L 190 45L 0 45Z" stroke="none" fill="none"></path><g id="SvgjsG1014"><text id="SvgjsText1015" font-family="微软雅黑" text-anchor="middle" font-size="18px" width="190px" fill="#323232" font-weight="700" align="middle" anchor="middle" family="微软雅黑" size="18px" weight="700" font-style="" opacity="1" y="-3.1999999999999997" transform="rotate(0)"><tspan id="SvgjsTspan1016" dy="22" x="95"><tspan id="SvgjsTspan1017" style="text-decoration:;">租金回报率 = 每年净房</tspan></tspan><tspan id="SvgjsTspan1018" dy="22" x="95"><tspan id="SvgjsTspan1019" style="text-decoration:;">租收入/购房总价%</tspan></tspan></text></g></g><g id="SvgjsG1020" transform="translate(672.171875,202.375)"><path id="SvgjsPath1021" d="M 0 0L 70 0L 70 55L 0 55Z" stroke="none" fill="none"></path><g id="SvgjsG1022"><text id="SvgjsText1023" font-family="微软雅黑" text-anchor="middle" font-size="19px" width="70px" fill="#323232" font-weight="700" align="middle" anchor="middle" family="微软雅黑" size="19px" weight="700" font-style="" opacity="1" y="-11.35" transform="rotate(0)"><tspan id="SvgjsTspan1024" dy="23" x="35"><tspan id="SvgjsTspan1025" style="text-decoration:;">租金回</tspan></tspan><tspan id="SvgjsTspan1026" dy="23" x="35"><tspan id="SvgjsTspan1027" style="text-decoration:;">报率</tspan></tspan><tspan id="SvgjsTspan1028" dy="23" x="35"><tspan id="SvgjsTspan1029" style="text-decoration:;"> ？</tspan></tspan></text></g></g><g id="SvgjsG1030" transform="translate(109.94568452380989,81.90712396069534)"><path id="SvgjsPath1031" d="M 0 0L 123.02380952380935 0L 123.02380952380935 32.84353741496591L 0 32.84353741496591Z" stroke="none" fill="none"></path><g id="SvgjsG1032"><text id="SvgjsText1033" font-family="微软雅黑" text-anchor="middle" font-size="20px" width="124px" fill="#ffffff" font-weight="700" align="middle" anchor="middle" family="微软雅黑" size="20px" weight="700" font-style="" opacity="1" y="0.9217687074829541" transform="rotate(0)"><tspan id="SvgjsTspan1034" dy="25" x="62"><tspan id="SvgjsTspan1035" style="text-decoration:;">100，000家</tspan></tspan></text></g></g><g id="SvgjsG1036" transform="matrix(6.123233995736766e-17,1,-1,6.123233995736766e-17,192.5885467529297,261.5694580078125)"><path id="SvgjsPath1037" d="M 0 14.025L 36.75 14.025L 36.75 0L 58 21.25L 36.75 42.5L 36.75 28.475L 0 28.475L 0 14.025Z" stroke="rgba(50,50,50,1)" stroke-width="2" fill-opacity="1" fill="#ffff33"></path><g id="SvgjsG1038"><text id="SvgjsText1039" font-family="微软雅黑" text-anchor="middle" font-size="13px" width="58px" fill="#323232" font-weight="400" align="middle" anchor="middle" family="微软雅黑" size="13px" weight="400" font-style="" opacity="1" y="11.3" transform="rotate(0)"></text></g></g><g id="SvgjsG1040" transform="translate(25.00520833333333,371.6527777777776)"><path id="SvgjsPath1041" d="M 0 0L 395 0L 395 55L 0 55Z" stroke="none" fill="none"></path><g id="SvgjsG1042"><text id="SvgjsText1043" font-family="微软雅黑" text-anchor="start" font-size="16px" width="395px" fill="#323232" font-weight="400" align="middle" anchor="start" family="微软雅黑" size="16px" weight="400" font-style="" opacity="1" y="-24.9" transform="rotate(0)"><tspan id="SvgjsTspan1044" dy="20" x="0"><tspan id="SvgjsTspan1045" style="text-decoration:;">       Y = aX + b</tspan></tspan><tspan id="SvgjsTspan1046" dy="20" x="0"><tspan id="SvgjsTspan1047" style="text-decoration:;">=&gt; 租金回报率（已知） = a系数 * 【地址，面 积，建</tspan></tspan><tspan id="SvgjsTspan1048" dy="20" x="0"><tspan id="SvgjsTspan1049" style="text-decoration:;">房时间，基建等】行向量（已知） + b系数</tspan></tspan><tspan id="SvgjsTspan1050" dy="20" x="0"><tspan id="SvgjsTspan1051" style="text-decoration:;"> </tspan></tspan><tspan id="SvgjsTspan1052" dy="20" x="0"><tspan id="SvgjsTspan1053" style="text-decoration:;"> </tspan></tspan></text></g></g><g id="SvgjsG1054" transform="translate(56.83854166666683,499.8750000000001)"><path id="SvgjsPath1055" d="M 0 0L 229 0L 229 20L 0 20Z" stroke="none" fill="none"></path><g id="SvgjsG1056"><text id="SvgjsText1057" font-family="微软雅黑" text-anchor="middle" font-size="17px" width="229px" fill="#323232" font-weight="700" align="middle" anchor="middle" family="微软雅黑" size="17px" weight="700" font-style="" opacity="1" y="-3.05" transform="rotate(0)"><tspan id="SvgjsTspan1058" dy="21" x="114.5"><tspan id="SvgjsTspan1059" style="text-decoration:;">求得 回归方程系数 a 和 b</tspan></tspan></text></g></g><g id="SvgjsG1060" transform="matrix(6.123233995736766e-17,1,-1,6.123233995736766e-17,192.5885467529297,421.5694580078125)"><path id="SvgjsPath1061" d="M 0 14.025L 36.75 14.025L 36.75 0L 58 21.25L 36.75 42.5L 36.75 28.475L 0 28.475L 0 14.025Z" stroke="rgba(50,50,50,1)" stroke-width="2" fill-opacity="1" fill="#ffff33"></path><g id="SvgjsG1062"><text id="SvgjsText1063" font-family="微软雅黑" text-anchor="middle" font-size="13px" width="58px" fill="#323232" font-weight="400" align="middle" anchor="middle" family="微软雅黑" size="13px" weight="400" font-style="" opacity="1" y="11.3" transform="rotate(0)"></text></g></g><g id="SvgjsG1064" transform="translate(416.4126157407404,497.0972222222225)"><path id="SvgjsPath1065" d="M 0 14.025L 36.75 14.025L 36.75 0L 58 21.25L 36.75 42.5L 36.75 28.475L 0 28.475L 0 14.025Z" stroke="rgba(50,50,50,1)" stroke-width="2" fill-opacity="1" fill="#ffff33"></path><g id="SvgjsG1066"><text id="SvgjsText1067" font-family="微软雅黑" text-anchor="middle" font-size="13px" width="58px" fill="#323232" font-weight="400" align="middle" anchor="middle" family="微软雅黑" size="13px" weight="400" font-style="" opacity="1" y="11.3" transform="rotate(0)"></text></g></g><g id="SvgjsG1068" transform="matrix(-1.8369701987210297e-16,-1,1,-1.8369701987210297e-16,685.921875,397.2083435058594)"><path id="SvgjsPath1069" d="M 0 14.025L 36.75 14.025L 36.75 0L 58 21.25L 36.75 42.5L 36.75 28.475L 0 28.475L 0 14.025Z" stroke="rgba(50,50,50,1)" stroke-width="2" fill-opacity="1" fill="#ffff33"></path><g id="SvgjsG1070"><text id="SvgjsText1071" font-family="微软雅黑" text-anchor="middle" font-size="13px" width="58px" fill="#323232" font-weight="400" align="middle" anchor="middle" family="微软雅黑" size="13px" weight="400" font-style="" opacity="1" y="11.3" transform="rotate(0)"></text></g></g><g id="SvgjsG1072" transform="translate(657.0618976757366,70.2083333333332)"><path id="SvgjsPath1073" d="M 0 44.734693877550995C 0 -14.911564625850332 93.98617511824182 -14.911564625850332 93.98617511824182 44.734693877550995C 93.98617511824182 104.38095238095232 0 104.38095238095232 0 44.734693877550995Z" stroke="rgba(50,50,50,1)" stroke-width="2" fill-opacity="1" fill="#99ccff"></path><g id="SvgjsG1074"><text id="SvgjsText1075" font-family="微软雅黑" text-anchor="middle" font-size="13px" width="74px" fill="#323232" font-weight="400" align="middle" anchor="middle" family="微软雅黑" size="13px" weight="400" font-style="" opacity="1" y="34.78469387755099" transform="rotate(0)"></text></g></g><g id="SvgjsG1076" transform="translate(668.8194243922475,108.68628409919296)"><path id="SvgjsPath1077" d="M 0 0L 70.47112168522074 0L 70.47112168522074 15.621201499832278L 0 15.621201499832278Z" stroke="none" fill="none"></path><g id="SvgjsG1078"><text id="SvgjsText1079" font-family="微软雅黑" text-anchor="middle" font-size="20px" width="71px" fill="#ffffff" font-weight="700" align="middle" anchor="middle" family="微软雅黑" size="20px" weight="700" font-style="" opacity="1" y="-7.689399250083861" transform="rotate(0)"><tspan id="SvgjsTspan1080" dy="25" x="35.5"><tspan id="SvgjsTspan1081" style="text-decoration:;">5000家</tspan></tspan></text></g></g><g id="SvgjsG1082" transform="translate(550.0052083333334,502.6527777777776)"><path id="SvgjsPath1083" d="M 0 0L 395 0L 395 55L 0 55Z" stroke="none" fill="none"></path><g id="SvgjsG1084"><text id="SvgjsText1085" font-family="微软雅黑" text-anchor="start" font-size="16px" width="395px" fill="#323232" font-weight="400" align="middle" anchor="start" family="微软雅黑" size="16px" weight="400" font-style="" opacity="1" y="-24.9" transform="rotate(0)"><tspan id="SvgjsTspan1086" dy="20" x="0"><tspan id="SvgjsTspan1087" style="text-decoration:;">       Y = aX + b</tspan></tspan><tspan id="SvgjsTspan1088" dy="20" x="0"><tspan id="SvgjsTspan1089" style="text-decoration:;">=&gt; 租金回报率  = a系数 （已知） * 【地址，面 积，建</tspan></tspan><tspan id="SvgjsTspan1090" dy="20" x="0"><tspan id="SvgjsTspan1091" style="text-decoration:;">房时间，基建等】行向量（已知） + b系数 （已知）</tspan></tspan><tspan id="SvgjsTspan1092" dy="20" x="0"><tspan id="SvgjsTspan1093" style="text-decoration:;"> </tspan></tspan><tspan id="SvgjsTspan1094" dy="20" x="0"><tspan id="SvgjsTspan1095" style="text-decoration:;"> </tspan></tspan></text></g></g></svg>